<svg viewBox="0 0 32 32" fill="none" xmlns="http://www.w3.org/2000/svg"><rect width="32" height="32" rx="2" fill="#1D60BE"/><path d="M8 27.184V6h9.536c2.261 0 4.043.619 5.344 1.856 1.301 1.216 1.952 2.87 1.952 4.96s-.65 3.755-1.952 4.992c-1.301 1.216-3.083 1.824-5.344 1.824H10.4v7.552H8zm2.4-9.792h6.976c1.664 0 2.923-.405 3.776-1.216.853-.81 1.28-1.93 1.28-3.36 0-1.408-.427-2.517-1.28-3.328-.853-.81-2.112-1.216-3.776-1.216H10.4v9.12z" fill="#fff"/><circle cx="21.5" cy="21.5" r="8" fill="#fff" stroke="#1D60BE"/><path stroke="#000" stroke-width="1.1" d="M18.24 16.625h5.97v2.485l-2.395 2.39 2.39 2.39v2.485H18.79V23.89l2.39-2.39-2.39-2.39v-2.48z"/></svg>
